<svg width="97" height="97" xmlns="http://www.w3.org/2000/svg" xmlns:xlink="http://www.w3.org/1999/xlink" xml:space="preserve" overflow="hidden"><defs><clipPath id="clip0"><rect x="996" y="277" width="97" height="97"/></clipPath><clipPath id="clip1"><rect x="997" y="278" width="96" height="96"/></clipPath><clipPath id="clip2"><rect x="997" y="278" width="96" height="96"/></clipPath><clipPath id="clip3"><rect x="997" y="278" width="96" height="96"/></clipPath></defs><g clip-path="url(#clip0)" transform="translate(-996 -277)"><g clip-path="url(#clip1)"><g clip-path="url(#clip2)"><g clip-path="url(#clip3)"><path d="M1045 288C1024 288 1007 305 1007 326 1007 347 1024 364 1045 364 1066 364 1083 347 1083 326 1083 305 1066 288 1045 288ZM1043 298C1045.8 298 1048 300.2 1048 303 1048 305.8 1045.8 308 1043 308 1040.2 308 1038 305.8 1038 303 1038 300.2 1040.2 298 1043 298ZM1055 354 1035 354 1035 348 1042 348 1042 318 1036 318 1036 312 1048 312 1048 318 1048 348 1055 348 1055 354Z" fill="#000000" fill-rule="nonzero" fill-opacity="1"/></g></g></g></g></svg>