<svg width="20" height="18" xmlns="http://www.w3.org/2000/svg" xmlns:xlink="http://www.w3.org/1999/xlink" xml:space="preserve" overflow="hidden"><defs><clipPath id="clip0"><rect x="496" y="536" width="20" height="18"/></clipPath><clipPath id="clip1"><rect x="497" y="536" width="20" height="18"/></clipPath><clipPath id="clip2"><rect x="497" y="536" width="20" height="18"/></clipPath><clipPath id="clip3"><rect x="497" y="536" width="20" height="18"/></clipPath></defs><g clip-path="url(#clip0)" transform="translate(-496 -536)"><g clip-path="url(#clip1)"><g clip-path="url(#clip2)"><g clip-path="url(#clip3)"><path d="M509 537.875C509.207 537.875 509.375 538.043 509.375 538.25L509.375 551.595 506.265 548.485 506 548.22 505.735 548.485 502.625 551.595 502.625 538.25C502.625 538.043 502.793 537.875 503 537.875L509 537.875M509 537.5 503 537.5C502.586 537.501 502.251 537.836 502.25 538.25L502.25 552.5 506 548.75 509.75 552.5 509.75 538.25C509.749 537.836 509.414 537.501 509 537.5Z" fill="#FFFFFF" fill-rule="nonzero" fill-opacity="1"/></g></g></g></g></svg>