<svg width="26" height="25" xmlns="http://www.w3.org/2000/svg" xmlns:xlink="http://www.w3.org/1999/xlink" xml:space="preserve" overflow="hidden"><defs><clipPath id="clip0"><rect x="866" y="69" width="26" height="25"/></clipPath><clipPath id="clip1"><rect x="867" y="70" width="24" height="24"/></clipPath><clipPath id="clip2"><rect x="867" y="70" width="24" height="24"/></clipPath><clipPath id="clip3"><rect x="867" y="70" width="24" height="24"/></clipPath></defs><g clip-path="url(#clip0)" transform="translate(-866 -69)"><g clip-path="url(#clip1)"><g clip-path="url(#clip2)"><g clip-path="url(#clip3)"><path d="M874.625 79.1975C872.899 79.1975 871.5 80.5966 871.5 82.3225 871.5 84.0484 872.899 85.4475 874.625 85.4475 876.351 85.4475 877.75 84.0484 877.75 82.3225 877.75 80.5966 876.351 79.1975 874.625 79.1975ZM874.625 80.4075C875.11 80.4061 875.504 80.7979 875.505 81.2825 875.506 81.7671 875.115 82.1611 874.63 82.1625 874.145 82.1639 873.751 81.7721 873.75 81.2875 873.75 81.2867 873.75 81.2858 873.75 81.285 873.75 80.8013 874.141 80.4089 874.625 80.4075ZM876.375 83.925 872.875 83.925 872.875 83.25C872.878 83.1131 872.943 82.9848 873.05 82.9 873.31 82.7201 873.598 82.5849 873.903 82.5 874.138 82.4325 874.38 82.3964 874.625 82.3925 874.87 82.3932 875.113 82.4295 875.347 82.5 875.658 82.5805 875.948 82.7225 876.203 82.9175 876.31 83.0023 876.374 83.1306 876.378 83.2675Z" fill="#FFFFFF" fill-rule="nonzero" fill-opacity="1"/><path d="M881.225 78.38 878.165 80.215C878.337 80.5045 878.475 80.8133 878.575 81.135L881.727 79.25C881.517 78.9873 881.347 78.6939 881.225 78.38Z" fill="#FFFFFF" fill-rule="nonzero" fill-opacity="1"/><path d="M886.5 77.1975C886.5 78.4401 885.493 79.4475 884.25 79.4475 883.007 79.4475 882 78.4401 882 77.1975 882 75.9549 883.007 74.9475 884.25 74.9475 885.493 74.9475 886.5 75.9549 886.5 77.1975Z" fill="#FFFFFF" fill-rule="nonzero" fill-opacity="1"/><path d="M881.727 85.4 878.575 83.5C878.475 83.8217 878.337 84.1305 878.165 84.42L881.225 86.265C881.348 85.9529 881.517 85.6613 881.727 85.4Z" fill="#FFFFFF" fill-rule="nonzero" fill-opacity="1"/><path d="M886.5 87.4475C886.5 88.6901 885.493 89.6975 884.25 89.6975 883.007 89.6975 882 88.6901 882 87.4475 882 86.2049 883.007 85.1975 884.25 85.1975 885.493 85.1975 886.5 86.2049 886.5 87.4475Z" fill="#FFFFFF" fill-rule="nonzero" fill-opacity="1"/></g></g></g></g></svg>