<svg width="20" height="19" xmlns="http://www.w3.org/2000/svg" xmlns:xlink="http://www.w3.org/1999/xlink" xml:space="preserve" overflow="hidden"><defs><clipPath id="clip0"><rect x="316" y="317" width="20" height="19"/></clipPath><clipPath id="clip1"><rect x="317" y="318" width="18" height="18"/></clipPath><clipPath id="clip2"><rect x="317" y="318" width="18" height="18"/></clipPath></defs><g clip-path="url(#clip0)" transform="translate(-316 -317)"><g clip-path="url(#clip1)"><g clip-path="url(#clip2)"><path d="M321.671 324.227C319.964 324.227 318.579 325.611 318.579 327.319 318.579 329.027 319.964 330.411 321.671 330.411 323.379 330.411 324.763 329.027 324.763 327.319 324.763 325.611 323.379 324.227 321.671 324.227ZM321.671 325.424C322.151 325.423 322.541 325.81 322.542 326.29 322.543 326.769 322.156 327.159 321.676 327.161 321.197 327.162 320.807 326.774 320.806 326.295 320.806 326.294 320.806 326.293 320.806 326.292 320.806 325.814 321.193 325.425 321.671 325.424ZM323.403 328.905 319.94 328.905 319.94 328.237C319.943 328.101 320.007 327.974 320.113 327.89 320.37 327.712 320.655 327.578 320.956 327.495 321.189 327.428 321.429 327.392 321.671 327.388 321.914 327.389 322.154 327.425 322.386 327.495 322.693 327.574 322.981 327.715 323.232 327.908 323.339 327.992 323.402 328.118 323.405 328.254Z" fill="#FFFFFF" fill-rule="nonzero" fill-opacity="1"/><path d="M328.202 323.418 325.174 325.234C325.345 325.52 325.481 325.826 325.58 326.144L328.699 324.279C328.49 324.019 328.323 323.728 328.202 323.418Z" fill="#FFFFFF" fill-rule="nonzero" fill-opacity="1"/><path d="M333.421 322.248C333.421 323.477 332.425 324.474 331.195 324.474 329.965 324.474 328.969 323.477 328.969 322.248 328.969 321.018 329.965 320.022 331.195 320.022 332.425 320.022 333.421 321.018 333.421 322.248Z" fill="#FFFFFF" fill-rule="nonzero" fill-opacity="1"/><path d="M328.699 330.364 325.58 328.484C325.481 328.802 325.345 329.108 325.174 329.394L328.202 331.22C328.323 330.911 328.491 330.622 328.699 330.364Z" fill="#FFFFFF" fill-rule="nonzero" fill-opacity="1"/><path d="M333.421 332.39C333.421 333.619 332.425 334.616 331.195 334.616 329.965 334.616 328.969 333.619 328.969 332.39 328.969 331.16 329.965 330.164 331.195 330.164 332.425 330.164 333.421 331.16 333.421 332.39Z" fill="#FFFFFF" fill-rule="nonzero" fill-opacity="1"/></g></g></g></svg>