<svg width="18" height="17" xmlns="http://www.w3.org/2000/svg" xmlns:xlink="http://www.w3.org/1999/xlink" xml:space="preserve" overflow="hidden"><defs><clipPath id="clip0"><rect x="62" y="537" width="18" height="17"/></clipPath><clipPath id="clip1"><rect x="63" y="538" width="17" height="16"/></clipPath><clipPath id="clip2"><rect x="63" y="538" width="17" height="16"/></clipPath><clipPath id="clip3"><rect x="63" y="538" width="17" height="16"/></clipPath><clipPath id="clip4"><rect x="63" y="538" width="17" height="16"/></clipPath></defs><g clip-path="url(#clip0)" transform="translate(-62 -537)"><g clip-path="url(#clip1)"><g clip-path="url(#clip2)"><g clip-path="url(#clip3)"><g clip-path="url(#clip4)"><path d="M159.241 56.3797 175.81 56.3797 175.81 67.7848 159.241 67.7848Z" stroke="#FFFFFF" stroke-width="0.43038" stroke-linecap="butt" stroke-linejoin="miter" stroke-miterlimit="8" stroke-opacity="1" fill="none" fill-rule="nonzero" transform="matrix(1 0 0 1.03268 -96.0253 483.778)"/><path d="M159.241 52.7215 175.81 52.7215 175.81 56.3797 159.241 56.3797Z" stroke="#FFFFFF" stroke-width="0.43038" stroke-linecap="butt" stroke-linejoin="miter" stroke-miterlimit="8" stroke-opacity="1" fill="none" fill-rule="nonzero" transform="matrix(1 0 0 1.03268 -96.0253 483.778)"/><path d="M164.405 52.7215 164.405 56.2997" stroke="#FFFFFF" stroke-width="0.43038" stroke-linecap="butt" stroke-linejoin="miter" stroke-miterlimit="8" stroke-opacity="1" fill="none" fill-rule="evenodd" transform="matrix(1 0 0 1.03268 -96.0253 483.778)"/><path d="M170.646 52.7215 170.646 56.2997" stroke="#FFFFFF" stroke-width="0.43038" stroke-linecap="butt" stroke-linejoin="miter" stroke-miterlimit="8" stroke-opacity="1" fill="none" fill-rule="evenodd" transform="matrix(1 0 0 1.03268 -96.0253 483.778)"/><path d="M160.747 57.6709 174.519 57.6709 174.519 66.2785 160.747 66.2785Z" stroke="#FFFFFF" stroke-width="0.43038" stroke-linecap="butt" stroke-linejoin="miter" stroke-miterlimit="8" stroke-opacity="1" fill="#FFFFFF" fill-rule="nonzero" fill-opacity="1" transform="matrix(1 0 0 1.03268 -96.0253 483.778)"/><path d="M165.911 53.7975 169.354 53.7975 169.354 55.3038 165.911 55.3038Z" stroke="#FFFFFF" stroke-width="0.43038" stroke-linecap="butt" stroke-linejoin="miter" stroke-miterlimit="8" stroke-opacity="1" fill="#FFFFFF" fill-rule="nonzero" fill-opacity="1" transform="matrix(1 0 0 1.03268 -96.0253 483.778)"/></g></g></g></g></g></svg>